<svg xmlns="http://www.w3.org/2000/svg" width="35" height="29" viewBox="0 0 35 29">
    <g fill="#00BC65" fill-rule="evenodd">
        <path d="M33.407 10.525a.907.907 0 0 1-.383.742l-.152-1.568c.315.143.535.46.535.826zM19.382 27.71h1.658v-1.96h-1.658v1.96zm11.51 0h1.658v-1.96h-1.658v1.96zM18.908 11.267a.908.908 0 0 1 .151-1.568l-.15 1.568zm11.531 7.035c.477.208 1.489 1.336 1.641 1.438a.555.555 0 0 0 .62-.918c-.215-.146-.617-.895-1.841-1.547l.117-.085a5.314 5.314 0 0 0 2.16-4.752 2.01 2.01 0 0 0 1.379-1.913c0-1.023-.767-1.87-1.755-1.998l-.063-1.808a.554.554 0 0 0-.605-.499c-.304.03-.621-.264-.592.04l.53 6.245a4.202 4.202 0 0 1-1.706 3.788l-2.57 1.868a3.032 3.032 0 0 1-3.576 0l-2.57-1.868a4.203 4.203 0 0 1-1.706-3.788l.392-4.069c.85-.128 2.615-.533 3.469-1.747 1.248.634 2.75.582 4.566-.152 1.302-.528 2.643-.413 3.987.34a6.832 6.832 0 0 1 1.705 1.36A.556.556 0 0 0 35 7.88c0-2.647-1.229-4.912-3.46-6.377a.554.554 0 0 0-.609.926c1.507.99 2.48 2.404 2.823 4.068a7.892 7.892 0 0 0-.862-.568c-1.639-.93-3.361-1.075-4.979-.421-2.27.919-3.393.414-4.04-.046a4.11 4.11 0 0 1-.536-.458.554.554 0 1 0-.784.783c.099.099.196.19.294.275-.584.812-1.949 1.17-2.754 1.285-.307-.6-.896-1.991-.42-3.062 1.042-2.346 4.258-3.178 6.695-3.178 1.156 0 2.315.233 3.35.675.283.12 1.782.977 1.782.394 0-.584 0-.584-1.347-1.414C29.07.095 27.673 0 26.368 0c-4.426 0-6.883 1.981-7.707 3.836-.74 1.664.228 3.64.557 4.227l-.045.464a2.017 2.017 0 0 0-.378 3.911 5.316 5.316 0 0 0 2.161 4.752l.118.085a4.833 4.833 0 0 0-2.8 4.38v6.609c0 .307.247.554.553.554h14.277a.554.554 0 0 0 .555-.554v-6.61c0-.949-.276-1.868-.798-2.657a.554.554 0 1 0-.924.61 3.7 3.7 0 0 1 .613 2.048v2.987h-1.658v-2.075a.554.554 0 1 0-1.108 0v5.143h-7.636v-5.143a.554.554 0 1 0-1.109 0v2.075h-1.657v-2.987c0-1.455.848-2.748 2.11-3.353l.674-.375 1.361 1.13a4.137 4.137 0 0 0 4.878 0l1.345-1.13.69.375z"/>
        <path d="M23.178 11.043a.554.554 0 0 0-.554.554v.751a.554.554 0 0 0 1.108 0v-.751a.554.554 0 0 0-.554-.554M30.219 9.39a2.059 2.059 0 0 0-1.466-.608c-.553 0-1.074.216-1.465.607a.553.553 0 1 0 .784.784.958.958 0 0 1 .68-.283c.26 0 .5.1.683.283a.553.553 0 0 0 .784 0 .554.554 0 0 0 0-.784M24.644 9.39a2.059 2.059 0 0 0-1.466-.608c-.553 0-1.074.216-1.465.607a.553.553 0 1 0 .783.784.961.961 0 0 1 1.364 0 .553.553 0 0 0 .784 0 .554.554 0 0 0 0-.784M28.754 11.043a.554.554 0 0 0-.555.554v.751a.554.554 0 1 0 1.108 0v-.751a.554.554 0 0 0-.553-.554M27.575 15.322a.555.555 0 0 0-.783 0 1.17 1.17 0 0 1-1.652 0 .555.555 0 0 0-.784.784 2.27 2.27 0 0 0 1.61.665 2.27 2.27 0 0 0 1.609-.665.555.555 0 0 0 0-.784M26.435 11.105a.554.554 0 0 0-.553.554v1.325h-.385a.554.554 0 1 0 0 1.108h.938a.554.554 0 0 0 .554-.554v-1.879a.554.554 0 0 0-.554-.554M12.745 12.812a1.978 1.978 0 0 0-1.407-.582c-.53 0-1.03.207-1.406.582a.555.555 0 0 0 .783.784.874.874 0 0 1 .623-.258c.235 0 .457.091.623.258a.554.554 0 0 0 .784-.784M7.475 12.812a1.977 1.977 0 0 0-1.406-.582c-.532 0-1.031.207-1.407.582a.555.555 0 0 0 .783.784.875.875 0 0 1 .623-.258c.236 0 .457.091.623.258a.554.554 0 0 0 .784-.784M10.246 16.448a.555.555 0 0 0-.784 0c-.418.418-1.1.418-1.517 0a.555.555 0 0 0-.784.784c.412.411.96.638 1.543.638.582 0 1.13-.227 1.542-.638a.555.555 0 0 0 0-.784M9.079 14.03h-.75a.554.554 0 1 0 0 1.109h.75a.555.555 0 0 0 0-1.109"/>
        <path d="M15.891 12.4l-.165-1.5a.829.829 0 0 1 .165 1.5zM11.03 8.454c.084-.076.164-.153.243-.23a1.797 1.797 0 0 0 1.059.213l.846 1.909a1.561 1.561 0 0 0 1.446.937h.029l.233 2.107a4.477 4.477 0 0 1-1.816 4.106l-2.524 1.834c-1.102.8-2.583.8-3.684 0l-2.525-1.834a4.477 4.477 0 0 1-1.815-4.106l.325-2.94.004-.031c.853.19 1.647.277 2.382.277 2.09 0 3.714-.683 4.933-1.547l.864-.695zm-.539-2.546l-2.076-.221a.46.46 0 0 1-.378-.276.458.458 0 0 1 .05-.464l1.2-1.647a.46.46 0 0 1 .427-.19c.08.009.279.053.378.276l.847 1.91c-.19.169-.343.377-.448.612zm1.65.035a.699.699 0 1 1-.002 1.398.699.699 0 0 1 .003-1.398zM1.517 12.4a.827.827 0 0 1 .166-1.5l-.166 1.5zm15.891-.713c0-.742-.42-1.387-1.034-1.712l.719-.986c.335-.46.398-1.046.167-1.567-.23-.52-3.04-1.45-3.607-1.511a.554.554 0 1 0-.117 1.102c.242.026 2.678.784 2.711.858a.46.46 0 0 1-.05.465l-1.2 1.646a.46.46 0 0 1-.427.19.46.46 0 0 1-.378-.275l-.847-1.91c.656-.56.551-.908.656-1.143l.357.007c.02.002.04.004.059.004.28 0 .52.372.55.088a.553.553 0 0 0-.492-.61l-.564-.06a1.809 1.809 0 0 0-1.959-1.428l-.847-1.909a1.557 1.557 0 0 0-1.272-.928 1.559 1.559 0 0 0-1.44.64L7.19 4.293a1.56 1.56 0 0 0-.167 1.567c.231.52.707.867 1.273.928l2.076.22c.03.144.077.281.139.41-1.407 1.38-3.792 2.73-7.43 1.915.513-1.632 2.303-2.985 3.912-3.665a.554.554 0 0 0-.431-1.02c-2.154.91-4.284 2.835-4.729 5.105-1.02.053-1.834.9-1.834 1.933a1.93 1.93 0 0 0 1.397 1.86 5.589 5.589 0 0 0 2.289 4.845l.438.319a4.6 4.6 0 0 0-2.722 4.193v2.952c0 .306.248 1.137.554 1.137a.554.554 0 0 0 .555-.554v-3.535c0-1.35.778-2.55 1.942-3.124.356 2.024 2.71 3.568 4.834 3.568 1.74 0 3.3-1.618 3.978-3.22a.554.554 0 1 0-1.02-.432c-.504 1.19-1.665 2.544-2.958 2.544-1.514 0-3.369-1.055-3.704-2.47l.627.457a4.24 4.24 0 0 0 2.494.813 4.24 4.24 0 0 0 2.494-.813l.988-.719a3.485 3.485 0 0 1 2.711 3.396v4.807h-1.506v-3.945a.554.554 0 1 0-1.109 0v3.945H5.125v-3.945a.553.553 0 1 0-1.108 0v3.945H2.51v-1.578a.555.555 0 0 0-1.109 0v2.131c0 .306.248.554.554.554h13.495a.553.553 0 0 0 .554-.554v-5.36a4.6 4.6 0 0 0-2.72-4.193l.437-.319a5.59 5.59 0 0 0 2.288-4.846 1.931 1.931 0 0 0 1.397-1.859z"/>
    </g>
</svg>
