<svg xmlns="http://www.w3.org/2000/svg" width="40" height="27" viewBox="0 0 40 27">
    <g fill="#000" fill-rule="evenodd">
        <path d="M8.562 22.394a.66.66 0 1 1 .002-1.32.66.66 0 0 1-.002 1.32m0-2.635a1.978 1.978 0 0 0-1.976 1.976c0 1.09.887 1.976 1.976 1.976 1.09 0 1.976-.887 1.976-1.976 0-1.09-.886-1.976-1.976-1.976"/>
        <path d="M38.2 11.856h-2.227l.842-1.682a.658.658 0 0 0-1.18-.589l-1.135 2.27h-2.885V1.318h3.293c1.877 0 3.292 1.416 3.292 3.293v7.246zm-7.244 13.172a3.297 3.297 0 0 1-3.293-3.292 3.297 3.297 0 0 1 3.293-3.295 3.297 3.297 0 0 1 3.293 3.295 3.297 3.297 0 0 1-3.293 3.292zm-5.928-13.172h5.27V3.952h-5.27v7.904zm-6.586 0h5.27V3.952h-5.27v7.904zm-6.586 0h5.268V3.952h-5.268v7.904zm-6.587 0h5.269V3.952H5.269v7.904zM34.908 0H1.976C.886 0 0 .887 0 1.976v18.441c0 1.09.886 1.977 1.976 1.977a.659.659 0 0 0 0-1.318.66.66 0 0 1-.659-.658v-1.976h.659a.659.659 0 0 0 0-1.317h-.659V1.975a.66.66 0 0 1 .659-.658h28.321v1.318H3.293a.658.658 0 0 0 0 1.317h.659v7.904h-.659a.659.659 0 0 0 0 1.316h27.004v2.635a.66.66 0 1 0 1.318 0v-2.635H38.2v3.952h-.657a.66.66 0 0 0 0 1.317h.657v1.976a.66.66 0 0 1-.657.66h-2.029a4.613 4.613 0 0 0-4.558-3.953 4.615 4.615 0 0 0-4.61 4.612 4.615 4.615 0 0 0 4.61 4.61c2.319 0 4.236-1.722 4.558-3.952h2.029a1.979 1.979 0 0 0 1.975-1.977V4.61c0-2.585-2.026-4.61-4.61-4.61z"/>
        <path d="M8.562 25.028a3.297 3.297 0 0 1-3.293-3.293 3.296 3.296 0 0 1 3.293-3.293 3.297 3.297 0 0 1 3.294 3.293 3.297 3.297 0 0 1-3.294 3.293m16.467-3.293a.659.659 0 0 0-.66-.658H13.12a4.612 4.612 0 0 0-4.557-3.953 4.616 4.616 0 0 0-4.61 4.611 4.615 4.615 0 0 0 4.61 4.61 4.612 4.612 0 0 0 4.558-3.951h11.25a.66.66 0 0 0 .659-.659M30.956 22.394a.66.66 0 1 1 .658-.658.66.66 0 0 1-.658.658m0-2.635a1.978 1.978 0 0 0-1.976 1.976c0 1.09.887 1.976 1.976 1.976a1.979 1.979 0 0 0 1.976-1.976c0-1.09-.887-1.976-1.976-1.976"/>
        <path d="M25.686 18.442a.66.66 0 1 0 0-1.317H13.831a.66.66 0 0 0 0 1.317h11.855z"/>
    </g>
</svg>
