<svg xmlns="http://www.w3.org/2000/svg" width="35" height="39" viewBox="0 0 35 39">
    <g fill="#000" fill-rule="evenodd">
        <path d="M31.88 37.05h-4.74V19.6a.646.646 0 0 0-1.293 0v.216h-1.291V19.6a.646.646 0 0 0-1.293 0v.216h-2.154V3.877h10.77V37.05zm-16.802 0h10.77V21.108h-10.77v15.94zm-.646-24.988H9.047V7.324h10.77v12.493h-4.739v-2.154h1.939a.646.646 0 0 0 0-1.292h-1.939v-2.154h1.939a.646.646 0 0 0 0-1.293h-1.939v-.215a.646.646 0 0 0-.646-.647zm-.646 8.401v16.586H10.77v-2.8a.646.646 0 0 0-.646-.646H6.677a.646.646 0 0 0-.646.646v2.8H3.016V13.355h10.77v7.108zM9.478 37.049h-.431v-1.077a.646.646 0 1 0-1.293 0v1.077h-.43v-2.155h2.154v2.155zm2.153-31.018h5.601V3.878h-5.6V6.03zM34.25 37.05h-1.077V3.231a.646.646 0 0 0-.646-.646H20.463a.646.646 0 0 0-.646.646v2.8h-1.293v-2.8a.646.646 0 0 0-.646-.646h-2.8V.645a.646.646 0 0 0-1.292 0v1.94h-2.801a.646.646 0 0 0-.646.646v2.8H8.4a.646.646 0 0 0-.646.647v5.384H2.37a.646.646 0 0 0-.646.647v24.34H.646a.646.646 0 1 0 0 1.292H34.25a.646.646 0 0 0 0-1.292z"/>
        <path d="M17.878 35.757c.357 0 .646-.29.646-.647V23.048a.646.646 0 1 0-1.292 0V35.11c0 .357.29.647.646.647M20.463 35.757c.357 0 .646-.29.646-.647V23.048a.646.646 0 1 0-1.292 0V35.11c0 .357.289.647.646.647M23.047 35.757c.358 0 .647-.29.647-.647V23.048a.646.646 0 1 0-1.292 0V35.11c0 .357.289.647.645.647M23.909 8.185c.357 0 .647-.29.647-.646v-.862a.646.646 0 0 0-1.293 0v.862c0 .357.29.646.646.646M26.494 8.185c.357 0 .646-.29.646-.646v-.862a.646.646 0 0 0-1.293 0v.862c0 .357.29.646.647.646M29.08 8.185c.356 0 .646-.29.646-.646v-.862a.647.647 0 0 0-1.293 0v.862c0 .357.289.646.646.646M23.909 12.493c.357 0 .647-.289.647-.646v-.862a.646.646 0 0 0-1.293 0v.862c0 .357.29.646.646.646M26.494 12.493c.357 0 .646-.289.646-.646v-.862a.646.646 0 0 0-1.293 0v.862c0 .357.29.646.647.646M29.08 12.493c.356 0 .646-.289.646-.646v-.862a.647.647 0 0 0-1.293 0v.862c0 .357.289.646.646.646M23.909 16.801c.357 0 .647-.29.647-.646v-.862a.646.646 0 1 0-1.293 0v.862c0 .357.29.646.646.646M26.494 16.801c.357 0 .646-.29.646-.646v-.862a.646.646 0 1 0-1.293 0v.862c0 .357.29.646.647.646M29.08 16.801c.356 0 .646-.29.646-.646v-.862a.647.647 0 0 0-1.293 0v.862c0 .357.289.646.646.646M5.816 18.525c.357 0 .646-.29.646-.647v-.862a.646.646 0 0 0-1.293 0v.862c0 .357.29.647.647.647M8.4 18.525c.358 0 .647-.29.647-.647v-.862a.646.646 0 0 0-1.293 0v.862c0 .357.29.647.646.647M10.985 18.525c.358 0 .647-.29.647-.647v-.862a.646.646 0 0 0-1.293 0v.862c0 .357.289.647.646.647M5.816 22.832a.646.646 0 0 0 .646-.646v-.861a.646.646 0 1 0-1.293 0v.86c0 .359.29.647.647.647M8.4 22.832a.646.646 0 0 0 .647-.646v-.861a.646.646 0 1 0-1.293 0v.86c0 .359.29.647.646.647M10.985 22.832a.646.646 0 0 0 .647-.646v-.861a.646.646 0 1 0-1.293 0v.86c0 .359.289.647.646.647M5.816 27.14a.646.646 0 0 0 .646-.646v-.861a.647.647 0 0 0-1.293 0v.86c0 .359.29.647.647.647M8.4 27.14a.646.646 0 0 0 .647-.646v-.861a.647.647 0 0 0-1.293 0v.86c0 .359.29.647.646.647M10.985 27.14a.646.646 0 0 0 .647-.646v-.861a.647.647 0 0 0-1.293 0v.86c0 .359.289.647.646.647M5.816 31.449c.357 0 .646-.29.646-.647v-.862a.647.647 0 0 0-1.293 0v.862c0 .358.29.647.647.647M8.4 31.449c.358 0 .647-.29.647-.647v-.862a.647.647 0 0 0-1.293 0v.862c0 .358.29.647.646.647M10.985 31.449c.358 0 .647-.29.647-.647v-.862a.647.647 0 0 0-1.293 0v.862c0 .358.289.647.646.647M29.08 21.11a.646.646 0 0 0 .646-.647V19.6a.647.647 0 0 0-1.293 0v.862c0 .358.289.646.646.646M29.08 25.417a.646.646 0 0 0 .646-.647v-.86a.646.646 0 0 0-1.293 0v.86c0 .358.289.647.646.647M29.08 29.725a.646.646 0 0 0 .646-.647v-.86a.647.647 0 0 0-1.293 0v.86c0 .358.289.647.646.647M29.08 34.034c.356 0 .646-.29.646-.647v-.862a.647.647 0 0 0-1.293 0v.862c0 .357.289.647.646.647M17.663 10.124a.646.646 0 0 0-.647-.647h-5.17a.646.646 0 1 0 0 1.293h5.17c.358 0 .647-.29.647-.646"/>
    </g>
</svg>
