<svg xmlns="http://www.w3.org/2000/svg" xmlns:xlink="http://www.w3.org/1999/xlink" width="40" height="40" viewBox="0 0 40 40">
    <defs>
        <path id="a" d="M.616 0h12.098v16.337H.616z"/>
        <path id="c" d="M.043.332h2.665v1.335H.043z"/>
        <path id="e" d="M.209.332h2.669v1.335H.208z"/>
        <path id="g" d="M.378.332h2.666v1.335H.378z"/>
        <path id="i" d="M.042.332h2.643v1.335H.042z"/>
        <path id="k" d="M.71.332h2.666v1.335H.71z"/>
        <path id="m" d="M.543.332H3.21v1.335H.543z"/>
    </defs>
    <g fill="none" fill-rule="evenodd">
        <path fill="#000" d="M13.014 31.032L8.33 36.328l-4.687-5.296c-2.644-2.985-2.644-7.845 0-10.83 1.256-1.42 2.92-2.2 4.687-2.2 1.764 0 3.428.78 4.684 2.2 2.644 2.985 2.644 7.845 0 10.83m1-11.715c-1.514-1.71-3.532-2.65-5.684-2.65-2.155 0-4.173.94-5.687 2.65-3.073 3.476-3.073 9.127 0 12.6L8.33 38.34l5.684-6.423c3.076-3.473 3.076-9.124 0-12.6"/>
        <g transform="translate(25.833)">
            <mask id="b" fill="#fff">
                <use xlink:href="#a"/>
            </mask>
            <path fill="#000" d="M3.353 2.887c.888-1.002 2.064-1.552 3.31-1.552 1.247 0 2.422.55 3.314 1.552 1.885 2.126 1.885 5.583 0 7.709l-3.313 3.733-3.311-3.733c-1.885-2.126-1.885-5.583 0-7.709zm3.31 13.45l4.31-4.856c2.321-2.614 2.321-6.865 0-9.48C9.829.713 8.299 0 6.664 0c-1.63 0-3.16.712-4.31 2.002-2.317 2.614-2.317 6.865 0 9.479l4.31 4.856z" mask="url(#b)"/>
        </g>
        <path fill="#000" d="M35.068 36.344a.664.664 0 0 0-.794.505c-.078.339-.228.651-.442.928-.229.29-.18.71.11.937.124.095.267.14.414.14.195 0 .39-.085.523-.254.336-.426.577-.93.694-1.458a.664.664 0 0 0-.505-.798M21.331 20.667c-.29 0-.57-.052-.836-.153a.666.666 0 0 0-.475 1.244c.416.16.856.241 1.308.241h.238a.663.663 0 0 0 .667-.664.664.664 0 0 0-.667-.668h-.235zM19.746 16.452c.12 0 .244-.033.355-.101.293-.186.621-.296.966-.335a.67.67 0 0 0 .593-.736.671.671 0 0 0-.738-.592 3.595 3.595 0 0 0-1.528.53.665.665 0 0 0-.214.918.672.672 0 0 0 .566.316"/>
        <g transform="translate(10 38.333)">
            <mask id="d" fill="#fff">
                <use xlink:href="#c"/>
            </mask>
            <path fill="#000" d="M2.044.332H.71a.668.668 0 0 0 0 1.335h1.334c.369 0 .664-.3.664-.667a.665.665 0 0 0-.664-.668" mask="url(#d)"/>
        </g>
        <path fill="#000" d="M23.994 26.667c-.055 0-.114 0-.169.003a.666.666 0 1 0 .026 1.334c.01 0 .02 0 .029-.002h1.306a.668.668 0 0 0 0-1.335h-1.192zM23.662 16h1.335a.663.663 0 0 0 .663-.668.662.662 0 0 0-.663-.664h-1.335a.665.665 0 1 0 0 1.331M31.852 26.667a.668.668 0 0 0 0 1.335h1.335c.368 0 .664-.3.664-.668a.665.665 0 0 0-.664-.667h-1.335zM34.235 21.335c0-.371-.3-.668-.667-.668h-1.335a.666.666 0 1 0 0 1.332h1.335a.666.666 0 0 0 .667-.664M27.852 28.001h1.335a.668.668 0 0 0 0-1.335h-1.335a.668.668 0 0 0 0 1.335M28.994 16a.664.664 0 1 0 0-1.332h-1.331a.665.665 0 1 0 0 1.331h1.331zM24.235 20.667a.664.664 0 0 0-.667.668c0 .367.296.664.667.664h1.332c.37 0 .666-.297.666-.664a.663.663 0 0 0-.666-.668h-1.332zM30.234 21.335c0-.371-.299-.668-.667-.668h-1.334a.663.663 0 0 0-.664.668c0 .367.295.664.664.664h1.334a.666.666 0 0 0 .667-.664M39.616 23.753a.663.663 0 0 0-.762-.55.663.663 0 0 0-.553.762 2.31 2.31 0 0 1-.068 1.028.67.67 0 0 0 .64.854c.29 0 .553-.19.642-.48a3.69 3.69 0 0 0 .1-1.614"/>
        <g transform="translate(25.833 38.333)">
            <mask id="f" fill="#fff">
                <use xlink:href="#e"/>
            </mask>
            <path fill="#000" d="M2.21.332H.875a.668.668 0 0 0 0 1.335H2.21a.668.668 0 0 0 0-1.335" mask="url(#f)"/>
        </g>
        <g transform="translate(21.667 38.333)">
            <mask id="h" fill="#fff">
                <use xlink:href="#g"/>
            </mask>
            <path fill="#000" d="M2.376.332H1.041c-.367 0-.663.3-.663.667 0 .368.296.668.663.668h1.335a.668.668 0 0 0 0-1.335" mask="url(#h)"/>
        </g>
        <path fill="#000" d="M31.377 33.333c0-.367-.3-.667-.668-.667h-1.33a.666.666 0 1 0 0 1.335h1.33c.369 0 .668-.3.668-.668M27.376 33.333a.666.666 0 0 0-.667-.667h-1.331a.666.666 0 1 0 0 1.335h1.33c.37 0 .668-.3.668-.668"/>
        <g transform="translate(30 38.333)">
            <mask id="j" fill="#fff">
                <use xlink:href="#i"/>
            </mask>
            <path fill="#000" d="M1.995.332H.71a.666.666 0 1 0 0 1.335H2.02L2.041 1v.667c.371 0 .644-.3.644-.667 0-.369-.322-.668-.69-.668" mask="url(#j)"/>
        </g>
        <path fill="#000" d="M34.356 35.147a.668.668 0 0 0 .52-1.08 3.687 3.687 0 0 0-1.253-1.017.663.663 0 0 0-.892.3.663.663 0 0 0 .3.892c.309.153.585.377.797.65.133.167.33.255.528.255M36.898 26.484c-.287.121-.59.183-.902.183h-.143a.666.666 0 1 0 0 1.334h.143c.488 0 .967-.098 1.416-.286a.671.671 0 0 0 .358-.872.671.671 0 0 0-.872-.359M18.685 19.902a.666.666 0 0 0 .427-.84 2.283 2.283 0 0 1-.118-.726c.003-.1.007-.201.02-.299a.667.667 0 1 0-1.322-.166 3.696 3.696 0 0 0 .153 1.608c.09.28.352.46.632.46a.66.66 0 0 0 .208-.037"/>
        <g transform="translate(13.333 38.333)">
            <mask id="l" fill="#fff">
                <use xlink:href="#k"/>
            </mask>
            <path fill="#000" d="M2.708.332H1.377a.666.666 0 1 0 0 1.335h1.331a.667.667 0 1 0 0-1.335" mask="url(#l)"/>
        </g>
        <path fill="#000" d="M22.747 33.73a.672.672 0 0 0 .609-.39.67.67 0 0 0-.329-.882 2.335 2.335 0 0 1-.82-.625.667.667 0 0 0-1.02.86c.35.412.792.75 1.284.976.09.042.186.061.276.061M37.832 21.159a3.616 3.616 0 0 0-1.546-.483.67.67 0 0 0-.716.613c-.03.368.244.69.612.716.348.03.677.13.98.306a.67.67 0 0 0 .912-.24.668.668 0 0 0-.242-.912"/>
        <g transform="translate(17.5 38.333)">
            <mask id="n" fill="#fff">
                <use xlink:href="#m"/>
            </mask>
            <path fill="#000" d="M2.542.332H1.211a.666.666 0 1 0 0 1.335h1.331a.668.668 0 0 0 0-1.335" mask="url(#n)"/>
        </g>
        <path fill="#000" d="M21.703 29.893a2.33 2.33 0 0 1 .413-.941.667.667 0 1 0-1.074-.791c-.326.442-.544.94-.648 1.48a.669.669 0 0 0 .654.795.673.673 0 0 0 .655-.543M32.663 4a2.336 2.336 0 0 1 2.334 2.335 2.335 2.335 0 0 1-4.668 0A2.336 2.336 0 0 1 32.663 4m0 5.999a3.669 3.669 0 0 0 3.665-3.665 3.672 3.672 0 0 0-3.665-3.67 3.675 3.675 0 0 0-3.669 3.67A3.672 3.672 0 0 0 32.663 10M8.33 27.334a2.672 2.672 0 0 1-2.67-2.666A2.672 2.672 0 0 1 8.33 22a2.672 2.672 0 0 1 2.666 2.67 2.67 2.67 0 0 1-2.666 2.665m0-6.667c-2.207 0-4 1.794-4 4.001a4.004 4.004 0 0 0 4 3.998 4.003 4.003 0 0 0 3.998-3.998c0-2.207-1.794-4-3.998-4"/>
    </g>
</svg>
