<svg xmlns="http://www.w3.org/2000/svg" xmlns:xlink="http://www.w3.org/1999/xlink" width="45" height="22" viewBox="0 0 45 22">
    <defs>
        <path id="a" d="M0 .395h44.516v20.498H0z"/>
    </defs>
    <g fill="none" fill-rule="evenodd">
        <path fill="#000" d="M17.206 8.928V4.27h4.707a6.38 6.38 0 0 1 3.584 1.097l4.196 2.834c.29.196.595.383.903.552a.626.626 0 0 1 .197.175H17.206zm14-1.287c-.273-.15-.544-.315-.804-.49l-4.194-2.835a7.647 7.647 0 0 0-4.295-1.314h-7.7A7.624 7.624 0 0 0 8.8 5.239a10.277 10.277 0 0 1-2.52 1.844c-.549.284-.89.845-.89 1.463 0 .91.74 1.65 1.65 1.65h6.755a.634.634 0 0 0 0-1.268H7.04a.382.382 0 0 1-.176-.72 11.548 11.548 0 0 0 2.831-2.071 6.363 6.363 0 0 1 4.52-1.867h1.723v4.658H13.83a.634.634 0 0 0 0 1.269h17.39c.52 0 .946-.425.946-.946 0-.668-.369-1.284-.96-1.61zM18.777 11.16h-1.959a.634.634 0 0 0 0 1.269h1.96a.635.635 0 1 0 0-1.269"/>
        <g transform="translate(0 .409)">
            <mask id="b" fill="#fff">
                <use xlink:href="#a"/>
            </mask>
            <path fill="#000" d="M43.248 15.476c0 .597-.485 1.083-1.084 1.083H41.12a4.154 4.154 0 0 0-1.057-2.662l-.028-.033c-.041-.045-.083-.088-.125-.131l-.022-.022a4.165 4.165 0 0 0-2.974-1.232 4.182 4.182 0 0 0-3.271 1.563 4.152 4.152 0 0 0-.935 2.517H11.964a4.152 4.152 0 0 0-.937-2.52l-.008-.011a6.013 6.013 0 0 0-.118-.138l-.022-.025a4.205 4.205 0 0 0-6.096-.153c-.048.045-.092.093-.137.142l-.038.044a5.923 5.923 0 0 0-.093.107l-.04.049a2.56 2.56 0 0 0-.09.118l-.027.037c-.08.109-.154.22-.222.336l-.006.01a3.57 3.57 0 0 0-.098.176c-.222.421-.37.876-.439 1.348L1.618 15.2a.588.588 0 0 1-.35-.536V8.522c0-.786.56-1.474 1.328-1.635l.91-.19a9.596 9.596 0 0 0 4.817-2.6 8.294 8.294 0 0 1 5.891-2.434h7.7c1.67 0 3.287.495 4.673 1.43l4.194 2.833c.841.57 2.121 1.358 3.507 1.633l5.788 1.152a3.948 3.948 0 0 1 2.606 1.83l.201.332c.239.397.365.85.365 1.313v3.29zm-4.256 3.288a2.92 2.92 0 0 1-2.078.86 2.923 2.923 0 0 1-2.078-.86c-1-1-1.127-2.548-.381-3.687l.01-.017.068-.098.032-.041a1.772 1.772 0 0 1 .114-.142l.046-.054c.035-.04.073-.078.11-.117a2.922 2.922 0 0 1 2.079-.86 2.916 2.916 0 0 1 2.19.977l.045.054.056.065.058.077.032.042.067.097.011.017a2.944 2.944 0 0 1-.381 3.687zm-29.156 0a2.922 2.922 0 0 1-2.078.86 2.922 2.922 0 0 1-2.078-.86 2.944 2.944 0 0 1-.596-3.298l.012-.027.048-.095.023-.045.046-.082.033-.056.044-.07c.013-.022.028-.043.042-.064l.044-.062.052-.07.042-.053c.02-.026.042-.051.064-.076.013-.014.024-.03.037-.043.032-.036.065-.071.1-.106l.009-.009.019-.02a2.157 2.157 0 0 1 .112-.103c.03-.027.06-.054.09-.078l.01-.007a2.943 2.943 0 0 1 3.698.004c.002 0 .002.002.004.003.033.027.065.054.096.082l.018.015.109.103c.038.039.075.078.11.118.017.018.031.036.046.054l.056.065c.02.025.04.05.058.077a3.58 3.58 0 0 1 .1.139l.011.017a2.944 2.944 0 0 1-.381 3.687zm25.541-12.28l-.841-.168c-1.162-.232-2.294-.933-3.046-1.44l-4.194-2.834A9.582 9.582 0 0 0 21.913.395h-7.699a9.556 9.556 0 0 0-6.787 2.803 8.327 8.327 0 0 1-4.18 2.257l-.911.19A2.952 2.952 0 0 0 0 8.523v6.142c0 .732.432 1.398 1.102 1.696l2.526 1.123c.153.797.538 1.56 1.155 2.178.82.82 1.897 1.23 2.975 1.23a4.194 4.194 0 0 0 4.047-3.064h21.062a4.17 4.17 0 0 0 1.073 1.834 4.18 4.18 0 0 0 2.974 1.232c1.124 0 2.18-.438 2.975-1.232a4.168 4.168 0 0 0 1.072-1.834h1.203a2.354 2.354 0 0 0 2.352-2.351v-3.29c0-.693-.189-1.374-.547-1.967l-.201-.332a5.214 5.214 0 0 0-3.445-2.42l-1.637-.326-3.309-.658z" mask="url(#b)"/>
        </g>
        <path fill="#000" d="M8.222 17.56a.653.653 0 0 1-.929 0 .65.65 0 0 1-.193-.465.65.65 0 0 1 .193-.464.65.65 0 0 1 .465-.193.657.657 0 0 1 .464 1.122m.897-1.826a1.911 1.911 0 0 0-1.361-.565c-.515 0-.998.2-1.362.565a1.91 1.91 0 0 0-.564 1.361c0 .514.2.998.564 1.361.364.364.847.564 1.362.564a1.927 1.927 0 0 0 1.361-3.286M37.378 17.56a.653.653 0 0 1-.929 0 .657.657 0 1 1 .93 0m.896-1.826a1.911 1.911 0 0 0-1.361-.565 1.927 1.927 0 0 0-1.361 3.287c.364.364.847.564 1.36.564.515 0 .999-.2 1.362-.564.363-.363.564-.847.564-1.36 0-.515-.2-.999-.564-1.362"/>
    </g>
</svg>
