<svg xmlns="http://www.w3.org/2000/svg" xmlns:xlink="http://www.w3.org/1999/xlink" width="39" height="40" viewBox="0 0 39 40">
    <defs>
        <path id="a" d="M0 .605h38.64v38.64H0z"/>
    </defs>
    <g fill="none" fill-rule="evenodd">
        <path fill="#000" d="M11.218 29.423a.623.623 0 1 1 0-1.246.623.623 0 0 1 0 1.246m0-2.492c-1.03 0-1.87.839-1.87 1.87 0 1.03.84 1.869 1.87 1.869 1.031 0 1.87-.839 1.87-1.87 0-1.03-.839-1.87-1.87-1.87M27.422 28.177a.624.624 0 1 1 0 1.247.624.624 0 0 1 0-1.247m0 2.493c1.031 0 1.87-.84 1.87-1.87 0-1.03-.839-1.869-1.87-1.869-1.03 0-1.87.839-1.87 1.87 0 1.03.84 1.869 1.87 1.869"/>
        <g transform="translate(0 .15)">
            <mask id="b" fill="#fff">
                <use xlink:href="#a"/>
            </mask>
            <path fill="#000" d="M32.408 15.304l-4.264-4.264a2.464 2.464 0 0 1 3.482-3.482l.782.783.784-.783a2.444 2.444 0 0 1 1.74-.721 2.465 2.465 0 0 1 2.462 2.462c0 .657-.256 1.275-.721 1.74l-4.265 4.265zm-.623 18.955a.624.624 0 0 1 0 1.247H6.855a.623.623 0 0 1 0-1.247h24.93zM28.046 38c-.687 0-1.247-.56-1.247-1.247h2.493c0 .688-.559 1.247-1.246 1.247zm-17.451 0c-.687 0-1.246-.56-1.246-1.247h2.493c0 .688-.56 1.247-1.247 1.247zM8.102 27.404c0-1.03.839-1.87 1.87-1.87h4.986v7.479H8.102v-5.61zm8.102 5.609h6.232v-1.246h-6.232v1.246zm0-2.494h6.232v-1.246h-6.232v1.246zm6.232-3.738v1.246h-6.232v-1.246h5.103v-1.247h-5.103v-1.247h6.232v1.247H21.19v1.247h1.246zm-11.841-6.856a4.369 4.369 0 0 1 4.363-4.363h8.724a4.369 4.369 0 0 1 4.364 4.363v4.362h-4.364c0-.686-.559-1.246-1.246-1.246h-6.232c-.688 0-1.246.56-1.246 1.246h-4.363v-4.362zm19.943 7.479v5.609h-6.856v-7.479h4.987c1.03 0 1.87.84 1.87 1.87zM6.233 10.318L1.968 6.053a2.446 2.446 0 0 1-.722-1.74 2.465 2.465 0 0 1 2.462-2.462c.657 0 1.276.256 1.741.72l.784.784.782-.783a2.448 2.448 0 0 1 1.741-.72 2.465 2.465 0 0 1 2.462 2.461c0 .657-.256 1.276-.72 1.74l-4.265 4.265zm31.321 1.603a3.682 3.682 0 0 0 1.087-2.622 3.712 3.712 0 0 0-3.709-3.709c-.944 0-1.835.352-2.524.992a3.684 3.684 0 0 0-2.524-.992 3.712 3.712 0 0 0-3.708 3.709c0 .99.386 1.921 1.087 2.622l4.522 4.523v1.445c0 .64.188 1.26.543 1.79l.371.56c.217.325.332.704.332 1.099 0 .53-.205 1.028-.58 1.403l-2.067 2.066a3.091 3.091 0 0 0-1.092-.456v-4.426a5.616 5.616 0 0 0-5.61-5.61h-8.724a5.615 5.615 0 0 0-5.61 5.61v4.426c-.518.105-.982.351-1.373.68L6.15 22.84a2.342 2.342 0 0 1-.54-1.495c0-.713.32-1.378.875-1.823l.96-.768a3.388 3.388 0 0 0 1.28-2.662c0-.91-.354-1.766-.999-2.41l-.238-.238a2.152 2.152 0 0 1-.633-1.53v-.458l4.523-4.522c.7-.7 1.087-1.632 1.087-2.622A3.712 3.712 0 0 0 8.756.604c-.945 0-1.835.352-2.523.993A3.684 3.684 0 0 0 3.708.604 3.712 3.712 0 0 0 0 4.314c0 .99.386 1.92 1.086 2.62l4.523 4.523v.458c0 .91.355 1.767.998 2.41l.238.238c.409.409.634.952.634 1.53 0 .66-.296 1.277-.812 1.69l-.96.767a3.565 3.565 0 0 0-1.345 2.796c0 .836.296 1.65.83 2.294l1.995 2.393a3.074 3.074 0 0 0-.332 1.37v5.61c-1.03 0-1.87.839-1.87 1.87 0 1.03.84 1.869 1.87 1.869h1.247a2.495 2.495 0 0 0 2.493 2.493 2.495 2.495 0 0 0 2.493-2.493h12.465a2.495 2.495 0 0 0 2.493 2.493 2.495 2.495 0 0 0 2.492-2.493h1.247c1.031 0 1.87-.839 1.87-1.87 0-1.03-.839-1.87-1.87-1.87v-5.608c0-.634-.192-1.223-.52-1.716l2.066-2.066a3.21 3.21 0 0 0 .948-2.284c0-.64-.189-1.261-.543-1.791l-.371-.558a1.976 1.976 0 0 1-.334-1.1v-1.445l4.523-4.523z" mask="url(#b)"/>
        </g>
    </g>
</svg>
